<mxfile host="65bd71144e" modified="2020-10-16T16:22:04.501Z" agent="5.0 (Macintosh; Intel Mac OS X 10_15_7) AppleWebKit/537.36 (KHTML, like Gecko) Code/1.50.1 Chrome/83.0.4103.122 Electron/9.2.1 Safari/537.36" etag="E-B8ck5sdHyp_aLycSgO" version="13.6.5">
    <diagram id="efhW7-6OERZXyLrKR3Or" name="Overview">
        <mxGraphModel dx="3211" dy="924" grid="1" gridSize="10" guides="1" tooltips="1" connect="1" arrows="1" fold="1" page="1" pageScale="1" pageWidth="1654" pageHeight="1169" math="0" shadow="0">
            <root>
                <mxCell id="0"/>
                <mxCell id="1" parent="0"/>
                <mxCell id="126" value="&lt;font style=&quot;font-size: 16px&quot;&gt;&amp;nbsp;Main Branches&lt;/font&gt;" style="rounded=0;whiteSpace=wrap;html=1;sketch=1;strokeColor=#82b366;fillStyle=hachure;fillColor=#d5e8d4;opacity=40;verticalAlign=top;" parent="1" vertex="1">
                    <mxGeometry x="-1000" y="80" width="360" height="90" as="geometry"/>
                </mxCell>
                <mxCell id="34" value="" style="ellipse;whiteSpace=wrap;html=1;aspect=fixed;rounded=1;sketch=1;fillColor=#e1d5e7;strokeColor=#9673a6;" parent="1" vertex="1">
                    <mxGeometry x="-1080" y="335" width="30" height="30" as="geometry"/>
                </mxCell>
                <mxCell id="10" style="edgeStyle=orthogonalEdgeStyle;rounded=0;sketch=1;orthogonalLoop=1;jettySize=auto;html=1;entryX=0.5;entryY=0;entryDx=0;entryDy=0;fillColor=#d5e8d4;strokeColor=#82b366;" parent="1" source="6" target="9" edge="1">
                    <mxGeometry relative="1" as="geometry"/>
                </mxCell>
                <mxCell id="6" value="dev" style="rounded=1;whiteSpace=wrap;html=1;sketch=1;fillColor=#d5e8d4;strokeColor=#82b366;" parent="1" vertex="1">
                    <mxGeometry x="-980" y="120" width="80" height="30" as="geometry"/>
                </mxCell>
                <mxCell id="7" value="&lt;span&gt;int&lt;/span&gt;" style="rounded=1;whiteSpace=wrap;html=1;sketch=1;fillColor=#60a917;strokeColor=#2D7600;labelBackgroundColor=#ffffff;" parent="1" vertex="1">
                    <mxGeometry x="-870" y="120" width="80" height="30" as="geometry"/>
                </mxCell>
                <mxCell id="24" style="edgeStyle=orthogonalEdgeStyle;curved=1;rounded=0;sketch=1;orthogonalLoop=1;jettySize=auto;html=1;entryX=0.5;entryY=0;entryDx=0;entryDy=0;fillColor=#d5e8d4;strokeColor=#82b366;" parent="1" source="9" target="23" edge="1">
                    <mxGeometry relative="1" as="geometry"/>
                </mxCell>
                <mxCell id="97" style="edgeStyle=orthogonalEdgeStyle;curved=1;rounded=0;sketch=1;orthogonalLoop=1;jettySize=auto;html=1;exitX=1;exitY=0.5;exitDx=0;exitDy=0;entryX=0;entryY=0.5;entryDx=0;entryDy=0;endArrow=open;endFill=0;strokeColor=#2D7600;strokeWidth=1;fontColor=#000000;fillColor=#60a917;" parent="1" source="9" target="95" edge="1">
                    <mxGeometry relative="1" as="geometry"/>
                </mxCell>
                <mxCell id="148" value="PR" style="edgeLabel;html=1;align=center;verticalAlign=middle;resizable=0;points=[];fontColor=#000000;" parent="97" vertex="1" connectable="0">
                    <mxGeometry x="0.346" y="8" relative="1" as="geometry">
                        <mxPoint as="offset"/>
                    </mxGeometry>
                </mxCell>
                <mxCell id="9" value="" style="ellipse;whiteSpace=wrap;html=1;aspect=fixed;rounded=1;sketch=1;fillColor=#d5e8d4;strokeColor=#82b366;" parent="1" vertex="1">
                    <mxGeometry x="-955" y="190" width="30" height="30" as="geometry"/>
                </mxCell>
                <mxCell id="101" style="edgeStyle=orthogonalEdgeStyle;curved=1;rounded=0;sketch=1;orthogonalLoop=1;jettySize=auto;html=1;entryX=1.038;entryY=0.033;entryDx=0;entryDy=0;entryPerimeter=0;endArrow=open;endFill=0;strokeColor=#7EA6E0;strokeWidth=1;fontColor=#000000;" parent="1" source="11" target="21" edge="1">
                    <mxGeometry relative="1" as="geometry"/>
                </mxCell>
                <mxCell id="102" value="create" style="edgeLabel;html=1;align=center;verticalAlign=middle;resizable=0;points=[];fontColor=#000000;" parent="101" vertex="1" connectable="0">
                    <mxGeometry x="-0.0748" y="1" relative="1" as="geometry">
                        <mxPoint as="offset"/>
                    </mxGeometry>
                </mxCell>
                <mxCell id="11" value="1st" style="ellipse;whiteSpace=wrap;html=1;aspect=fixed;rounded=1;sketch=1;fillColor=#e1d5e7;strokeColor=#9673a6;" parent="1" vertex="1">
                    <mxGeometry x="-1080" y="260" width="30" height="30" as="geometry"/>
                </mxCell>
                <mxCell id="22" style="edgeStyle=orthogonalEdgeStyle;curved=1;rounded=0;sketch=1;orthogonalLoop=1;jettySize=auto;html=1;dashed=1;exitX=1;exitY=0.5;exitDx=0;exitDy=0;exitPerimeter=0;fillColor=#ffe6cc;strokeColor=#d79b00;" parent="1" source="31" edge="1">
                    <mxGeometry relative="1" as="geometry">
                        <mxPoint x="-1030" y="230" as="targetPoint"/>
                        <Array as="points">
                            <mxPoint x="-1367" y="245"/>
                            <mxPoint x="-1367" y="249"/>
                            <mxPoint x="-1230" y="249"/>
                            <mxPoint x="-1230" y="205"/>
                            <mxPoint x="-1030" y="205"/>
                        </Array>
                    </mxGeometry>
                </mxCell>
                <mxCell id="30" value="Start work" style="edgeLabel;html=1;align=center;verticalAlign=middle;resizable=0;points=[];" parent="22" vertex="1" connectable="0">
                    <mxGeometry x="0.0328" y="-8" relative="1" as="geometry">
                        <mxPoint as="offset"/>
                    </mxGeometry>
                </mxCell>
                <mxCell id="13" value="Issue&lt;br&gt;#42" style="shape=document;whiteSpace=wrap;html=1;boundedLbl=1;rounded=1;sketch=1;fillColor=#ffe6cc;size=0.06666666666666667;verticalAlign=top;strokeColor=#d79b00;" parent="1" vertex="1">
                    <mxGeometry x="-1450" y="200" width="60" height="390" as="geometry"/>
                </mxCell>
                <mxCell id="14" value="" style="endArrow=none;html=1;dashed=1;dashPattern=1 4;" parent="1" source="88" edge="1">
                    <mxGeometry width="50" height="50" relative="1" as="geometry">
                        <mxPoint x="-1150" y="790" as="sourcePoint"/>
                        <mxPoint x="-1150" y="110" as="targetPoint"/>
                    </mxGeometry>
                </mxCell>
                <mxCell id="16" style="edgeStyle=orthogonalEdgeStyle;curved=1;rounded=0;sketch=1;orthogonalLoop=1;jettySize=auto;html=1;entryX=0.5;entryY=0;entryDx=0;entryDy=0;fillColor=#ffe6cc;strokeColor=#d79b00;" parent="1" source="15" target="13" edge="1">
                    <mxGeometry relative="1" as="geometry"/>
                </mxCell>
                <mxCell id="15" value="Issues" style="shape=document;whiteSpace=wrap;html=1;boundedLbl=1;rounded=1;sketch=1;fillColor=#ffe6cc;size=0.25;strokeColor=#d79b00;" parent="1" vertex="1">
                    <mxGeometry x="-1465" y="120" width="90" height="40" as="geometry"/>
                </mxCell>
                <mxCell id="32" style="edgeStyle=orthogonalEdgeStyle;curved=1;rounded=0;sketch=1;orthogonalLoop=1;jettySize=auto;html=1;entryX=0.5;entryY=0;entryDx=0;entryDy=0;endArrow=open;endFill=0;fillColor=#dae8fc;strokeColor=#6c8ebf;" parent="1" source="20" target="21" edge="1">
                    <mxGeometry relative="1" as="geometry"/>
                </mxCell>
                <mxCell id="20" value="Pull Request" style="triangle;whiteSpace=wrap;html=1;rounded=1;sketch=1;fillColor=#dae8fc;strokeColor=#6c8ebf;" parent="1" vertex="1">
                    <mxGeometry x="-1295" y="95" width="90" height="80" as="geometry"/>
                </mxCell>
                <mxCell id="28" style="edgeStyle=orthogonalEdgeStyle;curved=1;rounded=0;sketch=1;orthogonalLoop=1;jettySize=auto;html=1;entryX=1.012;entryY=0.179;entryDx=0;entryDy=0;dashed=1;endArrow=open;endFill=0;exitX=0;exitY=0;exitDx=0;exitDy=0;entryPerimeter=0;fillColor=#dae8fc;strokeColor=#6c8ebf;" parent="1" source="21" target="13" edge="1">
                    <mxGeometry relative="1" as="geometry">
                        <Array as="points">
                            <mxPoint x="-1335" y="270"/>
                            <mxPoint x="-1335" y="275"/>
                            <mxPoint x="-1369" y="275"/>
                        </Array>
                    </mxGeometry>
                </mxCell>
                <mxCell id="29" value="Link" style="edgeLabel;html=1;align=center;verticalAlign=middle;resizable=0;points=[];" parent="28" vertex="1" connectable="0">
                    <mxGeometry x="-0.1987" y="-3" relative="1" as="geometry">
                        <mxPoint as="offset"/>
                    </mxGeometry>
                </mxCell>
                <mxCell id="38" style="edgeStyle=orthogonalEdgeStyle;curved=1;rounded=0;sketch=1;orthogonalLoop=1;jettySize=auto;html=1;entryX=-0.016;entryY=0.499;entryDx=0;entryDy=0;endArrow=open;endFill=0;strokeWidth=1;exitX=1.028;exitY=0.778;exitDx=0;exitDy=0;exitPerimeter=0;entryPerimeter=0;strokeColor=#7EA6E0;" parent="1" source="21" target="52" edge="1">
                    <mxGeometry relative="1" as="geometry">
                        <mxPoint x="-1090" y="475" as="targetPoint"/>
                    </mxGeometry>
                </mxCell>
                <mxCell id="83" style="edgeStyle=orthogonalEdgeStyle;curved=1;rounded=0;sketch=1;orthogonalLoop=1;jettySize=auto;html=1;entryX=1.012;entryY=0.965;entryDx=0;entryDy=0;entryPerimeter=0;endArrow=open;endFill=0;strokeWidth=1;exitX=0.5;exitY=1;exitDx=0;exitDy=0;fillColor=#dae8fc;strokeColor=#6c8ebf;" parent="1" source="21" target="13" edge="1">
                    <mxGeometry relative="1" as="geometry"/>
                </mxCell>
                <mxCell id="84" value="trigger" style="edgeLabel;html=1;align=center;verticalAlign=middle;resizable=0;points=[];" parent="83" vertex="1" connectable="0">
                    <mxGeometry x="-0.0652" y="1" relative="1" as="geometry">
                        <mxPoint as="offset"/>
                    </mxGeometry>
                </mxCell>
                <mxCell id="21" value="Pull Request&lt;br&gt;&amp;nbsp; branch to v1/dev" style="shape=offPageConnector;whiteSpace=wrap;html=1;rounded=1;sketch=1;fillColor=#dae8fc;size=0.19047619047619047;verticalAlign=top;strokeColor=#6c8ebf;" parent="1" vertex="1">
                    <mxGeometry x="-1280" y="270" width="60" height="300" as="geometry"/>
                </mxCell>
                <mxCell id="63" style="edgeStyle=orthogonalEdgeStyle;curved=1;rounded=0;sketch=1;orthogonalLoop=1;jettySize=auto;html=1;entryX=1.05;entryY=0.874;entryDx=0;entryDy=0;entryPerimeter=0;endArrow=open;endFill=0;strokeWidth=1;fillColor=#d5e8d4;strokeColor=#82b366;" parent="1" source="23" target="61" edge="1">
                    <mxGeometry relative="1" as="geometry"/>
                </mxCell>
                <mxCell id="128" style="edgeStyle=orthogonalEdgeStyle;curved=1;rounded=0;sketch=1;orthogonalLoop=1;jettySize=auto;html=1;endArrow=open;endFill=0;strokeColor=#82b366;strokeWidth=1;fontColor=#000000;fillColor=#d5e8d4;" parent="1" source="23" edge="1">
                    <mxGeometry relative="1" as="geometry">
                        <mxPoint x="-940" y="690" as="targetPoint"/>
                    </mxGeometry>
                </mxCell>
                <mxCell id="23" value="" style="ellipse;whiteSpace=wrap;html=1;aspect=fixed;rounded=1;sketch=1;fillColor=#d5e8d4;strokeColor=#82b366;" parent="1" vertex="1">
                    <mxGeometry x="-955" y="580" width="30" height="30" as="geometry"/>
                </mxCell>
                <mxCell id="31" value="" style="line;strokeWidth=2;html=1;rounded=1;sketch=1;fillColor=#ffe6cc;strokeColor=#d79b00;" parent="1" vertex="1">
                    <mxGeometry x="-1470" y="240" width="100" height="10" as="geometry"/>
                </mxCell>
                <mxCell id="36" style="edgeStyle=orthogonalEdgeStyle;curved=1;rounded=0;sketch=1;orthogonalLoop=1;jettySize=auto;html=1;endArrow=open;endFill=0;dashed=1;dashPattern=1 1;strokeWidth=1;fillColor=#e1d5e7;strokeColor=#9673a6;" parent="1" source="34" edge="1">
                    <mxGeometry relative="1" as="geometry">
                        <mxPoint x="-1065" y="410" as="targetPoint"/>
                    </mxGeometry>
                </mxCell>
                <mxCell id="35" style="edgeStyle=orthogonalEdgeStyle;curved=1;rounded=0;sketch=1;orthogonalLoop=1;jettySize=auto;html=1;endArrow=open;endFill=0;fillColor=#e1d5e7;strokeColor=#9673a6;" parent="1" source="11" target="34" edge="1">
                    <mxGeometry relative="1" as="geometry">
                        <mxPoint x="-1065" y="360" as="targetPoint"/>
                        <mxPoint x="-1065" y="290" as="sourcePoint"/>
                    </mxGeometry>
                </mxCell>
                <mxCell id="47" style="edgeStyle=orthogonalEdgeStyle;curved=1;rounded=0;sketch=1;orthogonalLoop=1;jettySize=auto;html=1;entryX=0;entryY=0.5;entryDx=0;entryDy=0;endArrow=open;endFill=0;strokeWidth=1;exitX=1.054;exitY=0.562;exitDx=0;exitDy=0;exitPerimeter=0;strokeColor=#7EA6E0;" parent="1" source="52" target="23" edge="1">
                    <mxGeometry relative="1" as="geometry">
                        <mxPoint x="-1065" y="490" as="sourcePoint"/>
                    </mxGeometry>
                </mxCell>
                <mxCell id="48" value="Merge" style="edgeLabel;html=1;align=center;verticalAlign=middle;resizable=0;points=[];" parent="47" vertex="1" connectable="0">
                    <mxGeometry x="-0.2849" y="11" relative="1" as="geometry">
                        <mxPoint as="offset"/>
                    </mxGeometry>
                </mxCell>
                <mxCell id="37" value="" style="ellipse;whiteSpace=wrap;html=1;aspect=fixed;rounded=1;sketch=1;fillColor=#e1d5e7;strokeColor=#9673a6;" parent="1" vertex="1">
                    <mxGeometry x="-1080" y="410" width="30" height="30" as="geometry"/>
                </mxCell>
                <mxCell id="39" value="" style="line;strokeWidth=2;html=1;rounded=1;sketch=1;fillColor=none;strokeColor=#7EA6E0;" parent="1" vertex="1">
                    <mxGeometry x="-1290" y="500" width="80" height="10" as="geometry"/>
                </mxCell>
                <mxCell id="45" value="" style="endArrow=classic;html=1;strokeWidth=1;sketch=1;entryX=0.5;entryY=0;entryDx=0;entryDy=0;exitX=0.023;exitY=0.667;exitDx=0;exitDy=0;exitPerimeter=0;fillColor=#e1d5e7;strokeColor=#9673a6;" parent="1" edge="1">
                    <mxGeometry relative="1" as="geometry">
                        <mxPoint x="-955" y="210.01" as="sourcePoint"/>
                        <mxPoint x="-1065.69" y="260" as="targetPoint"/>
                        <Array as="points">
                            <mxPoint x="-1030.69" y="240"/>
                        </Array>
                    </mxGeometry>
                </mxCell>
                <mxCell id="46" value="Branch" style="edgeLabel;resizable=0;html=1;align=center;verticalAlign=middle;" parent="45" connectable="0" vertex="1">
                    <mxGeometry relative="1" as="geometry">
                        <mxPoint x="-18.58" y="7.630000000000001" as="offset"/>
                    </mxGeometry>
                </mxCell>
                <mxCell id="50" style="edgeStyle=orthogonalEdgeStyle;curved=1;rounded=0;sketch=1;orthogonalLoop=1;jettySize=auto;html=1;endArrow=open;endFill=0;strokeWidth=1;exitX=0.5;exitY=1;exitDx=0;exitDy=0;fillColor=#e1d5e7;strokeColor=#9673a6;" parent="1" source="37" edge="1">
                    <mxGeometry relative="1" as="geometry">
                        <mxPoint x="-1065" y="440" as="sourcePoint"/>
                        <mxPoint x="-1065" y="460" as="targetPoint"/>
                    </mxGeometry>
                </mxCell>
                <mxCell id="55" style="edgeStyle=orthogonalEdgeStyle;curved=1;rounded=0;sketch=1;orthogonalLoop=1;jettySize=auto;html=1;entryX=0.5;entryY=0;entryDx=0;entryDy=0;endArrow=open;endFill=0;strokeWidth=1;fillColor=#e1d5e7;strokeColor=#9673a6;" parent="1" source="52" target="54" edge="1">
                    <mxGeometry relative="1" as="geometry"/>
                </mxCell>
                <mxCell id="52" value="review" style="html=1;whiteSpace=wrap;aspect=fixed;shape=isoRectangle;rounded=1;sketch=1;fillColor=#dae8fc;strokeColor=#6c8ebf;" parent="1" vertex="1">
                    <mxGeometry x="-1090" y="460" width="54.17" height="32.5" as="geometry"/>
                </mxCell>
                <mxCell id="60" style="edgeStyle=orthogonalEdgeStyle;curved=1;rounded=0;sketch=1;orthogonalLoop=1;jettySize=auto;html=1;endArrow=open;endFill=0;strokeWidth=1;entryX=0.026;entryY=0.511;entryDx=0;entryDy=0;entryPerimeter=0;fillColor=#e1d5e7;strokeColor=#9673a6;" parent="1" source="54" target="52" edge="1">
                    <mxGeometry relative="1" as="geometry">
                        <mxPoint x="-1100" y="490" as="targetPoint"/>
                        <Array as="points">
                            <mxPoint x="-1100" y="535"/>
                            <mxPoint x="-1100" y="500"/>
                            <mxPoint x="-1089" y="500"/>
                        </Array>
                    </mxGeometry>
                </mxCell>
                <mxCell id="62" style="edgeStyle=orthogonalEdgeStyle;curved=1;rounded=0;sketch=1;orthogonalLoop=1;jettySize=auto;html=1;entryX=0.392;entryY=0.023;entryDx=0;entryDy=0;entryPerimeter=0;endArrow=open;endFill=0;strokeWidth=1;fillColor=#e1d5e7;strokeColor=#9673a6;" parent="1" source="54" target="61" edge="1">
                    <mxGeometry relative="1" as="geometry"/>
                </mxCell>
                <mxCell id="54" value="" style="ellipse;whiteSpace=wrap;html=1;aspect=fixed;rounded=1;sketch=1;fillColor=#e1d5e7;strokeColor=#9673a6;" parent="1" vertex="1">
                    <mxGeometry x="-1080" y="520" width="30" height="30" as="geometry"/>
                </mxCell>
                <mxCell id="57" value="" style="html=1;aspect=fixed;strokeColor=#82b366;shadow=0;align=center;verticalAlign=top;fillColor=#d5e8d4;shape=mxgraph.gcp2.check;rounded=1;sketch=1;fillStyle=solid;" parent="1" vertex="1">
                    <mxGeometry x="-1035" y="472.5" width="25" height="20" as="geometry"/>
                </mxCell>
                <mxCell id="59" value="" style="aspect=fixed;pointerEvents=1;shadow=0;dashed=0;html=1;strokeColor=#6c8ebf;labelPosition=center;verticalLabelPosition=bottom;verticalAlign=top;align=center;fillColor=#dae8fc;shape=mxgraph.mscae.enterprise.tool;rounded=1;sketch=0;fillStyle=solid;" parent="1" vertex="1">
                    <mxGeometry x="-1076.1100000000001" y="492.5" width="22.22" height="20" as="geometry"/>
                </mxCell>
                <mxCell id="85" style="edgeStyle=orthogonalEdgeStyle;curved=1;rounded=0;sketch=1;orthogonalLoop=1;jettySize=auto;html=1;endArrow=open;endFill=0;strokeWidth=1;exitX=0.55;exitY=0.979;exitDx=0;exitDy=0;exitPerimeter=0;fillColor=#dae8fc;strokeColor=#6c8ebf;" parent="1" source="21" target="61" edge="1">
                    <mxGeometry relative="1" as="geometry"/>
                </mxCell>
                <mxCell id="86" value="trigger" style="edgeLabel;html=1;align=center;verticalAlign=middle;resizable=0;points=[];" parent="85" vertex="1" connectable="0">
                    <mxGeometry x="-0.0129" y="7" relative="1" as="geometry">
                        <mxPoint as="offset"/>
                    </mxGeometry>
                </mxCell>
                <mxCell id="61" value="delete" style="html=1;verticalLabelPosition=bottom;align=center;labelBackgroundColor=#ffffff;verticalAlign=top;strokeWidth=2;shadow=0;dashed=0;shape=mxgraph.ios7.icons.trashcan;rounded=1;sketch=0;fillColor=#e1d5e7;strokeColor=#9673a6;" parent="1" vertex="1">
                    <mxGeometry x="-1074" y="570" width="24" height="30" as="geometry"/>
                </mxCell>
                <mxCell id="66" style="edgeStyle=orthogonalEdgeStyle;curved=1;rounded=0;sketch=1;orthogonalLoop=1;jettySize=auto;html=1;entryX=0.5;entryY=0;entryDx=0;entryDy=0;dashed=1;dashPattern=1 4;endArrow=open;endFill=0;strokeWidth=2;fillColor=#e1d5e7;strokeColor=#9673a6;" parent="1" source="141" target="11" edge="1">
                    <mxGeometry relative="1" as="geometry"/>
                </mxCell>
                <mxCell id="65" value="feat/42-title" style="rounded=1;whiteSpace=wrap;html=1;sketch=1;fillColor=#e1d5e7;strokeColor=#9673a6;" parent="1" vertex="1">
                    <mxGeometry x="-1105" y="120" width="80" height="30" as="geometry"/>
                </mxCell>
                <mxCell id="73" style="edgeStyle=orthogonalEdgeStyle;curved=1;rounded=0;sketch=1;orthogonalLoop=1;jettySize=auto;html=1;entryX=0;entryY=0.5;entryDx=0;entryDy=0;entryPerimeter=0;endArrow=open;endFill=0;strokeWidth=1;" parent="1" source="72" target="31" edge="1">
                    <mxGeometry relative="1" as="geometry"/>
                </mxCell>
                <mxCell id="72" value="status: refined" style="html=1;dashed=0;whitespace=wrap;shape=mxgraph.dfd.start;rounded=1;sketch=0;strokeColor=#d79b00;fillColor=#ffe6cc;" parent="1" vertex="1">
                    <mxGeometry x="-1600" y="240" width="80" height="20" as="geometry"/>
                </mxCell>
                <mxCell id="75" style="edgeStyle=orthogonalEdgeStyle;curved=1;rounded=0;sketch=1;orthogonalLoop=1;jettySize=auto;html=1;entryX=-0.016;entryY=0.002;entryDx=0;entryDy=0;entryPerimeter=0;endArrow=open;endFill=0;strokeWidth=1;fillColor=#ffe6cc;strokeColor=#d79b00;" parent="1" source="74" target="13" edge="1">
                    <mxGeometry relative="1" as="geometry">
                        <Array as="points">
                            <mxPoint x="-1495" y="200"/>
                            <mxPoint x="-1495" y="201"/>
                        </Array>
                    </mxGeometry>
                </mxCell>
                <mxCell id="74" value="status: new" style="html=1;dashed=0;whitespace=wrap;shape=mxgraph.dfd.start;rounded=1;sketch=0;strokeColor=#d79b00;fillColor=#ffe6cc;" parent="1" vertex="1">
                    <mxGeometry x="-1600" y="190" width="80" height="20" as="geometry"/>
                </mxCell>
                <mxCell id="78" style="edgeStyle=orthogonalEdgeStyle;curved=1;rounded=0;sketch=1;orthogonalLoop=1;jettySize=auto;html=1;entryX=0.006;entryY=0.023;entryDx=0;entryDy=0;entryPerimeter=0;endArrow=open;endFill=0;strokeWidth=1;" parent="1" source="77" target="21" edge="1">
                    <mxGeometry relative="1" as="geometry"/>
                </mxCell>
                <mxCell id="77" value="draft" style="html=1;dashed=0;whitespace=wrap;shape=mxgraph.dfd.start;rounded=1;sketch=0;fillColor=none;strokeColor=#7EA6E0;" parent="1" vertex="1">
                    <mxGeometry x="-1360" y="290" width="50" height="20" as="geometry"/>
                </mxCell>
                <mxCell id="80" style="edgeStyle=orthogonalEdgeStyle;curved=1;rounded=0;sketch=1;orthogonalLoop=1;jettySize=auto;html=1;entryX=0;entryY=0.5;entryDx=0;entryDy=0;entryPerimeter=0;endArrow=open;endFill=0;strokeWidth=1;" parent="1" source="79" target="39" edge="1">
                    <mxGeometry relative="1" as="geometry"/>
                </mxCell>
                <mxCell id="79" value="ready" style="html=1;dashed=0;whitespace=wrap;shape=mxgraph.dfd.start;rounded=1;sketch=0;fillColor=none;strokeColor=#7EA6E0;" parent="1" vertex="1">
                    <mxGeometry x="-1360" y="492.5" width="50" height="20" as="geometry"/>
                </mxCell>
                <mxCell id="82" style="edgeStyle=orthogonalEdgeStyle;curved=1;rounded=0;sketch=1;orthogonalLoop=1;jettySize=auto;html=1;entryX=-0.029;entryY=0.974;entryDx=0;entryDy=0;entryPerimeter=0;endArrow=open;endFill=0;strokeWidth=1;" parent="1" source="81" target="13" edge="1">
                    <mxGeometry relative="1" as="geometry"/>
                </mxCell>
                <mxCell id="81" value="status: closed" style="html=1;dashed=0;whitespace=wrap;shape=mxgraph.dfd.start;rounded=1;sketch=0;strokeColor=#d79b00;fillColor=#ffe6cc;" parent="1" vertex="1">
                    <mxGeometry x="-1600" y="550" width="80" height="20" as="geometry"/>
                </mxCell>
                <mxCell id="87" value="" style="shape=curlyBracket;whiteSpace=wrap;html=1;rounded=1;sketch=1;strokeColor=#9673a6;fillColor=#e1d5e7;size=0.5;" parent="1" vertex="1">
                    <mxGeometry x="-1120" y="335" width="40" height="105" as="geometry"/>
                </mxCell>
                <mxCell id="88" value="in progress" style="html=1;dashed=0;whitespace=wrap;shape=mxgraph.dfd.start;rounded=1;sketch=0;strokeColor=none;fillColor=none;fontColor=#B5739D;" parent="1" vertex="1">
                    <mxGeometry x="-1190" y="372.5" width="70" height="30" as="geometry"/>
                </mxCell>
                <mxCell id="89" value="" style="endArrow=none;html=1;dashed=1;dashPattern=1 4;" parent="1" target="88" edge="1">
                    <mxGeometry width="50" height="50" relative="1" as="geometry">
                        <mxPoint x="-1150" y="790" as="sourcePoint"/>
                        <mxPoint x="-1150" y="110" as="targetPoint"/>
                    </mxGeometry>
                </mxCell>
                <mxCell id="93" style="edgeStyle=orthogonalEdgeStyle;rounded=0;sketch=1;orthogonalLoop=1;jettySize=auto;html=1;entryX=0.5;entryY=0;entryDx=0;entryDy=0;fillColor=#60a917;strokeColor=#2D7600;" parent="1" target="95" edge="1">
                    <mxGeometry relative="1" as="geometry">
                        <mxPoint x="-830" y="150" as="sourcePoint"/>
                    </mxGeometry>
                </mxCell>
                <mxCell id="94" style="edgeStyle=orthogonalEdgeStyle;curved=1;rounded=0;sketch=1;orthogonalLoop=1;jettySize=auto;html=1;entryX=0.5;entryY=0;entryDx=0;entryDy=0;fillColor=#60a917;strokeColor=#2D7600;" parent="1" source="95" target="96" edge="1">
                    <mxGeometry relative="1" as="geometry"/>
                </mxCell>
                <mxCell id="118" style="edgeStyle=orthogonalEdgeStyle;curved=1;rounded=0;sketch=1;orthogonalLoop=1;jettySize=auto;html=1;entryX=0;entryY=0.5;entryDx=0;entryDy=0;endArrow=open;endFill=0;strokeColor=#b85450;strokeWidth=1;fontColor=#000000;fillColor=#f8cecc;" parent="1" source="95" target="111" edge="1">
                    <mxGeometry relative="1" as="geometry"/>
                </mxCell>
                <mxCell id="149" value="PR" style="edgeLabel;html=1;align=center;verticalAlign=middle;resizable=0;points=[];fontColor=#000000;" parent="118" vertex="1" connectable="0">
                    <mxGeometry x="0.3212" y="7" relative="1" as="geometry">
                        <mxPoint as="offset"/>
                    </mxGeometry>
                </mxCell>
                <mxCell id="95" value="" style="ellipse;whiteSpace=wrap;html=1;aspect=fixed;rounded=1;sketch=1;fillColor=#60a917;strokeColor=#2D7600;fontColor=#ffffff;" parent="1" vertex="1">
                    <mxGeometry x="-845" y="215" width="30" height="30" as="geometry"/>
                </mxCell>
                <mxCell id="121" style="edgeStyle=orthogonalEdgeStyle;curved=1;rounded=0;sketch=1;orthogonalLoop=1;jettySize=auto;html=1;entryX=0;entryY=0.5;entryDx=0;entryDy=0;endArrow=open;endFill=0;strokeColor=#b85450;strokeWidth=1;fontColor=#000000;fillColor=#f8cecc;" parent="1" source="96" target="112" edge="1">
                    <mxGeometry relative="1" as="geometry"/>
                </mxCell>
                <mxCell id="155" value="PR" style="edgeLabel;html=1;align=center;verticalAlign=middle;resizable=0;points=[];fontColor=#000000;" parent="121" vertex="1" connectable="0">
                    <mxGeometry x="0.0697" y="1" relative="1" as="geometry">
                        <mxPoint as="offset"/>
                    </mxGeometry>
                </mxCell>
                <mxCell id="129" style="edgeStyle=orthogonalEdgeStyle;curved=1;rounded=0;sketch=1;orthogonalLoop=1;jettySize=auto;html=1;endArrow=open;endFill=0;strokeColor=#2D7600;strokeWidth=1;fontColor=#000000;fillColor=#60a917;" parent="1" source="96" edge="1">
                    <mxGeometry relative="1" as="geometry">
                        <mxPoint x="-830" y="690" as="targetPoint"/>
                    </mxGeometry>
                </mxCell>
                <mxCell id="96" value="" style="ellipse;whiteSpace=wrap;html=1;aspect=fixed;rounded=1;sketch=1;fillColor=#60a917;strokeColor=#2D7600;fontColor=#ffffff;" parent="1" vertex="1">
                    <mxGeometry x="-845" y="605" width="30" height="30" as="geometry"/>
                </mxCell>
                <mxCell id="99" style="edgeStyle=orthogonalEdgeStyle;curved=1;rounded=0;sketch=1;orthogonalLoop=1;jettySize=auto;html=1;exitX=1;exitY=0.5;exitDx=0;exitDy=0;entryX=0;entryY=0.5;entryDx=0;entryDy=0;endArrow=open;endFill=0;strokeColor=#2D7600;strokeWidth=1;fontColor=#000000;fillColor=#60a917;" parent="1" source="23" target="96" edge="1">
                    <mxGeometry relative="1" as="geometry">
                        <mxPoint x="-930" y="590" as="sourcePoint"/>
                        <mxPoint x="-805" y="615" as="targetPoint"/>
                    </mxGeometry>
                </mxCell>
                <mxCell id="154" value="PR" style="edgeLabel;html=1;align=center;verticalAlign=middle;resizable=0;points=[];fontColor=#000000;" parent="99" vertex="1" connectable="0">
                    <mxGeometry x="0.0032" y="1" relative="1" as="geometry">
                        <mxPoint as="offset"/>
                    </mxGeometry>
                </mxCell>
                <mxCell id="108" value="main" style="rounded=1;whiteSpace=wrap;html=1;sketch=1;fillColor=#f8cecc;strokeColor=#b85450;labelBackgroundColor=#ffffff;" parent="1" vertex="1">
                    <mxGeometry x="-760" y="120" width="80" height="30" as="geometry"/>
                </mxCell>
                <mxCell id="109" style="edgeStyle=orthogonalEdgeStyle;rounded=0;sketch=1;orthogonalLoop=1;jettySize=auto;html=1;entryX=0.5;entryY=0;entryDx=0;entryDy=0;fillColor=#f8cecc;strokeColor=#b85450;" parent="1" target="111" edge="1">
                    <mxGeometry relative="1" as="geometry">
                        <mxPoint x="-715" y="150" as="sourcePoint"/>
                    </mxGeometry>
                </mxCell>
                <mxCell id="110" style="edgeStyle=orthogonalEdgeStyle;curved=1;rounded=0;sketch=1;orthogonalLoop=1;jettySize=auto;html=1;entryX=0.5;entryY=0;entryDx=0;entryDy=0;fillColor=#f8cecc;strokeColor=#b85450;" parent="1" source="111" target="112" edge="1">
                    <mxGeometry relative="1" as="geometry"/>
                </mxCell>
                <mxCell id="130" style="edgeStyle=orthogonalEdgeStyle;curved=1;rounded=0;sketch=1;orthogonalLoop=1;jettySize=auto;html=1;endArrow=open;endFill=0;strokeColor=#b85450;strokeWidth=1;fontColor=#000000;fillColor=#f8cecc;" parent="1" source="112" edge="1">
                    <mxGeometry relative="1" as="geometry">
                        <mxPoint x="-715" y="690" as="targetPoint"/>
                    </mxGeometry>
                </mxCell>
                <mxCell id="112" value="" style="ellipse;whiteSpace=wrap;html=1;aspect=fixed;rounded=1;sketch=1;fillColor=#f8cecc;strokeColor=#b85450;" parent="1" vertex="1">
                    <mxGeometry x="-730" y="630" width="30" height="30" as="geometry"/>
                </mxCell>
                <mxCell id="111" value="" style="ellipse;whiteSpace=wrap;html=1;aspect=fixed;rounded=1;sketch=1;fillColor=#f8cecc;strokeColor=#b85450;" parent="1" vertex="1">
                    <mxGeometry x="-730" y="240" width="30" height="30" as="geometry"/>
                </mxCell>
                <mxCell id="141" value="&lt;font style=&quot;font-size: 16px&quot;&gt;issue branches&lt;/font&gt;" style="rounded=0;whiteSpace=wrap;html=1;sketch=1;strokeColor=#9673a6;fillStyle=hachure;fillColor=#e1d5e7;opacity=40;verticalAlign=top;" parent="1" vertex="1">
                    <mxGeometry x="-1140" y="80" width="140" height="90" as="geometry"/>
                </mxCell>
                <mxCell id="143" value="v1.32.4.unstable" style="text;html=1;strokeColor=#82b366;fillColor=#d5e8d4;align=center;verticalAlign=middle;whiteSpace=wrap;rounded=1;opacity=40;shadow=0;sketch=1;" parent="1" vertex="1">
                    <mxGeometry x="-940" y="175" width="100" height="20" as="geometry"/>
                </mxCell>
                <mxCell id="146" value="v1.32.4.rc" style="text;html=1;strokeColor=#2D7600;fillColor=#60a917;align=center;verticalAlign=middle;whiteSpace=wrap;rounded=1;opacity=40;shadow=0;sketch=1;" parent="1" vertex="1">
                    <mxGeometry x="-830" y="200" width="70" height="20" as="geometry"/>
                </mxCell>
                <mxCell id="147" value="v1.32.4" style="text;html=1;strokeColor=#6F0000;fillColor=#a20025;align=center;verticalAlign=middle;whiteSpace=wrap;rounded=1;opacity=40;shadow=0;sketch=1;glass=0;" parent="1" vertex="1">
                    <mxGeometry x="-710" y="220" width="50" height="20" as="geometry"/>
                </mxCell>
                <mxCell id="151" value="v1.33.0.unstable" style="text;html=1;strokeColor=#82b366;fillColor=#d5e8d4;align=center;verticalAlign=middle;whiteSpace=wrap;rounded=1;opacity=40;shadow=0;sketch=1;" parent="1" vertex="1">
                    <mxGeometry x="-940" y="562.5" width="100" height="20" as="geometry"/>
                </mxCell>
                <mxCell id="152" value="v1.33.0.rc" style="text;html=1;strokeColor=#2D7600;fillColor=#60a917;align=center;verticalAlign=middle;whiteSpace=wrap;rounded=1;opacity=40;shadow=0;sketch=1;" parent="1" vertex="1">
                    <mxGeometry x="-830" y="587.5" width="70" height="20" as="geometry"/>
                </mxCell>
                <mxCell id="153" value="v1.33.0" style="text;html=1;strokeColor=#6F0000;fillColor=#a20025;align=center;verticalAlign=middle;whiteSpace=wrap;rounded=1;opacity=40;shadow=0;sketch=1;glass=0;" parent="1" vertex="1">
                    <mxGeometry x="-710" y="607.5" width="50" height="20" as="geometry"/>
                </mxCell>
            </root>
        </mxGraphModel>
    </diagram>
</mxfile>